<?xml version="1.0" encoding="utf-8"?>
<!-- Generator: Adobe Illustrator 23.0.6, SVG Export Plug-In . SVG Version: 6.00 Build 0)  -->
<svg version="1.1" id="Layer_1" xmlns="http://www.w3.org/2000/svg" xmlns:xlink="http://www.w3.org/1999/xlink" x="0px" y="0px"
	 viewBox="0 0 98 155" style="enable-background:new 0 0 98 155;" xml:space="preserve">
<style type="text/css">
	.st0{fill:#FFFFFF;}
	.st1{fill:#48658A;}
	.st2{fill:#9D4C3D;}
	.st3{fill:#042F5F;}
	.st4{fill:#F26F21;}
	.st5{stroke:#000000;stroke-width:2;stroke-miterlimit:10;}
	.st6{fill:#B5B5B5;}
</style>
<g>
	<g>
		<path class="st0" d="M87.67587,154H10.32412C5.17455,154,1,149.82545,1,144.67587V10.32412C1,5.17455,5.17455,1,10.32412,1
			h77.35175C92.82545,1,97,5.17455,97,10.32412v134.35175C97,149.82545,92.82545,154,87.67587,154z"/>
		<path d="M87.67578,155H10.32422C4.63135,155,0,150.36816,0,144.67578V10.32422C0,4.63135,4.63135,0,10.32422,0h77.35156
			C93.36816,0,98,4.63135,98,10.32422v134.35156C98,150.36816,93.36816,155,87.67578,155z M10.32422,2
			C5.73438,2,2,5.73438,2,10.32422v134.35156C2,149.26562,5.73438,153,10.32422,153h77.35156
			C92.26562,153,96,149.26562,96,144.67578V10.32422C96,5.73438,92.26562,2,87.67578,2H10.32422z"/>
	</g>
	<path class="st0" d="M48.99279,91.99178l-0.39355,0.00782c-10.37842,0-18.4624-2.86719-24.02783-8.52246
		c-4.92822-5.00684-7.53271-11.95068-7.53271-20.08007l0.00049-41.10059c0-1.42139,0-5.74707,5.04834-5.74707h15.41504
		c3.16064,0,5.04785,2.14844,5.04785,5.74707l0.00049,28.36768l0.02148,2.82227c0,1.28516,0.08057,2.34473,0.24707,3.23926
		c0.31787,1.60889,0.9375,2.75879,1.8916,3.50439l0.13232,0.09668c1.00195,0.68164,2.35889,1.01611,4.16797,1.03662
		c1.78613-0.02051,3.14355-0.35498,4.12598-1.02295l0.10742-0.07764c0.99805-0.77783,1.61719-1.92822,1.9375-3.54834
		c0.16406-0.8833,0.24512-1.94287,0.24512-3.22803c0-7.79785,0.0332-31.61328,0.0332-31.61328
		c0.1582-3.3999,1.99316-5.32373,5.03711-5.32373h15.41504c5.04785,0,5.04785,4.32568,5.04785,5.74707l0.00098,41.10059
		c0,8.12939-2.60449,15.07324-7.53223,20.08007c-5.56641,5.65527-13.65039,8.52246-24.02832,8.52246L48.99279,91.99178z"/>
	<path id="Rounded_Rectangle_1-2_1_" class="st1" d="M54.38603,78.03084h2.66028c1.50329,0,2.72194,1.21865,2.72194,2.72194v2.66409
		c0,1.50329-1.21865,2.72194-2.72194,2.72194h-2.66028c-1.50329,0-2.72194-1.21865-2.72194-2.72194v-2.6641
		C51.66409,79.2495,52.88274,78.03084,54.38603,78.03084z"/>
	<path id="Rounded_Rectangle_1-3_1_" class="st2" d="M70.58156,44.91846h2.6581c1.50328,0,2.72194,1.21865,2.72194,2.72194v2.66478
		c0,1.50329-1.21866,2.72194-2.72194,2.72194h-2.6581c-1.50328,0-2.72194-1.21865-2.72194-2.72194V47.6404
		C67.85962,46.13711,69.07828,44.91846,70.58156,44.91846z"/>
	<path id="Rounded_Rectangle_1-4_1_" class="st3" d="M33.58021,74.93463h2.65811c1.50328,0,2.72194,1.21865,2.72194,2.72194v2.6641
		c0,1.5033-1.21865,2.72194-2.72194,2.72194h-2.65811c-1.50328,0-2.72194-1.21865-2.72194-2.72194v-2.6641
		C30.85827,76.15328,32.07693,74.93463,33.58021,74.93463z"/>
	<path id="Rounded_Rectangle_1-5_1_" class="st2" d="M33.13578,22.13094h2.6581c1.50328,0,2.72194,1.21866,2.72194,2.72194v2.66451
		c0,1.50328-1.21865,2.72194-2.72194,2.72194h-2.65811c-1.50328,0-2.72194-1.21865-2.72194-2.72194v-2.66451
		C30.41385,23.34958,31.6325,22.13094,33.13578,22.13094z"/>
	<path id="Rounded_Rectangle_1-6_1_" class="st1" d="M27.43244,67.80451h2.66029c1.50328,0,2.72194,1.21865,2.72194,2.72194v2.66409
		c0,1.5033-1.21865,2.72195-2.72194,2.72195h-2.66029c-1.50328,0-2.72194-1.21865-2.72194-2.72194v-2.6641
		C24.7105,69.02317,25.92915,67.80451,27.43244,67.80451z"/>
	<path id="Rounded_Rectangle_1-7_1_" class="st1" d="M51.19414,65.38403h2.65811c1.50328,0,2.72194,1.21865,2.72194,2.72194v2.66479
		c0,1.50329-1.21865,2.72194-2.72194,2.72194h-2.65811c-1.50328,0-2.72194-1.21865-2.72194-2.72194v-2.66479
		C48.47221,66.60268,49.69086,65.38403,51.19414,65.38403z"/>
	<path id="Rounded_Rectangle_1-8_1_" class="st3" d="M32.63604,51.17891h2.6581c1.50329,0,2.72194,1.21865,2.72194,2.72194v2.66479
		c0,1.50329-1.21865,2.72194-2.72194,2.72194h-2.65811c-1.50328,0-2.72194-1.21865-2.72194-2.72194v-2.66479
		C29.9141,52.39756,31.13275,51.17891,32.63604,51.17891z"/>
	<path id="Rounded_Rectangle_1-9_1_" class="st3" d="M62.49652,37.83938h2.65818c1.50328,0,2.72194,1.21865,2.72194,2.72194v2.66478
		c0,1.50329-1.21866,2.72194-2.72194,2.72194h-2.65818c-1.50328,0-2.72194-1.21865-2.72194-2.72194v-2.66478
		C59.77458,39.05803,60.99323,37.83938,62.49652,37.83938z"/>
	<path id="Rounded_Rectangle_1-10_1_" class="st3" d="M27.22407,25.23347h2.65811c1.50328,0,2.72194,1.21866,2.72194,2.72194
		v2.66457c0,1.50328-1.21866,2.72194-2.72194,2.72194h-2.65811c-1.50328,0-2.72194-1.21865-2.72194-2.72194v-2.66457
		C24.50213,26.45212,25.72079,25.23347,27.22407,25.23347z"/>
	<path id="Rounded_Rectangle_1-11_1_" class="st3" d="M33.55258,31.22173h2.65811c1.50329,0,2.72194,1.21865,2.72194,2.72194v2.6647
		c0,1.50329-1.21865,2.72194-2.72194,2.72194h-2.65811c-1.50328,0-2.72194-1.21865-2.72194-2.72194v-2.6647
		C30.83064,32.44039,32.0493,31.22173,33.55258,31.22173z"/>
	<path id="Rounded_Rectangle_1-12_1_" class="st2" d="M58.46465,63.53175h2.66028c1.50328,0,2.72194,1.21865,2.72194,2.72194
		v2.66478c0,1.50329-1.21866,2.72193-2.72194,2.72193h-2.66028c-1.50329,0-2.72194-1.21865-2.72194-2.72193v-2.66478
		C55.74271,64.7504,56.96136,63.53175,58.46465,63.53175z"/>
	<path id="Rounded_Rectangle_1-13_1_" class="st2" d="M44.37862,66.04954h2.66029c1.50329,0,2.72194,1.21865,2.72194,2.72195
		v2.66478c0,1.50329-1.21865,2.72193-2.72194,2.72193h-2.66029c-1.50329,0-2.72194-1.21865-2.72194-2.72193v-2.66478
		C41.65668,67.26819,42.87533,66.04954,44.37862,66.04954z"/>
	<path id="Rounded_Rectangle_1-14_1_" class="st3" d="M47.54927,78.00906h2.66029c1.50328,0,2.72194,1.21865,2.72194,2.72194
		v2.66479c0,1.50329-1.21865,2.72194-2.72194,2.72194h-2.66028c-1.50329,0-2.72194-1.21865-2.72194-2.72194V80.731
		C44.82733,79.22771,46.04598,78.00906,47.54927,78.00906z"/>
	<path id="Rounded_Rectangle_1-15_1_" class="st3" d="M40.3149,77.0312h2.65811c1.50329,0,2.72194,1.21865,2.72194,2.72195v2.66478
		c0,1.50329-1.21865,2.72194-2.72194,2.72194H40.3149c-1.50328,0-2.72194-1.21865-2.72194-2.72194v-2.66478
		C37.59296,78.24985,38.81161,77.0312,40.3149,77.0312z"/>
	<path id="Rounded_Rectangle_1-16_1_" class="st3" d="M65.55019,69.42474h2.66028c1.50329,0,2.72194,1.21865,2.72194,2.72194v2.6641
		c0,1.5033-1.21866,2.72194-2.72194,2.72194h-2.66028c-1.50328,0-2.72194-1.21865-2.72194-2.72194v-2.6641
		C62.82825,70.64339,64.04691,69.42474,65.55019,69.42474z"/>
	<path id="Rounded_Rectangle_1-17_1_" class="st3" d="M31.34523,70.87894h2.65818c1.50328,0,2.72194,1.21865,2.72194,2.72194
		v2.66478c0,1.50329-1.21865,2.72193-2.72194,2.72193h-2.65818c-1.50328,0-2.72194-1.21864-2.72194-2.72193v-2.66478
		C28.62329,72.0976,29.84194,70.87894,31.34523,70.87894z"/>
	<path id="Rounded_Rectangle_1-18_1_" class="st3" d="M32.57861,60.19534h2.65818c1.50329,0,2.72194,1.21865,2.72194,2.72194
		v2.66478c0,1.5033-1.21865,2.72194-2.72194,2.72194h-2.65818c-1.50328,0-2.72194-1.21865-2.72194-2.72194v-2.66478
		C29.85667,61.41399,31.07532,60.19534,32.57861,60.19534z"/>
	<path id="Rounded_Rectangle_1-19_1_" class="st3" d="M54.63271,70.44547h2.65811c1.50328,0,2.72194,1.21865,2.72194,2.72194v2.6641
		c0,1.50329-1.21865,2.72194-2.72194,2.72194h-2.65811c-1.50329,0-2.72194-1.21865-2.72194-2.72194v-2.6641
		C51.91076,71.66412,53.12941,70.44547,54.63271,70.44547z"/>
	<path id="Rounded_Rectangle_1-20_1_" class="st2" d="M48.14469,72.9762h2.66029c1.50328,0,2.72194,1.21865,2.72194,2.72194v2.6641
		c0,1.50329-1.21865,2.72194-2.72194,2.72194h-2.66029c-1.50329,0-2.72194-1.21865-2.72194-2.72194v-2.6641
		C45.42275,74.19485,46.6414,72.9762,48.14469,72.9762z"/>
	<path id="Rounded_Rectangle_1-21_1_" class="st3" d="M38.30529,69.19475h2.65817c1.50329,0,2.72194,1.21865,2.72194,2.72194
		v2.66478c0,1.5033-1.21865,2.72194-2.72194,2.72194h-2.65817c-1.50329,0-2.72194-1.21865-2.72194-2.72194v-2.66478
		C35.58336,70.4134,36.80201,69.19475,38.30529,69.19475z"/>
	<path id="Rounded_Rectangle_1-22_1_" class="st4" d="M69.06538,38.44569h2.6581c1.50328,0,2.72194,1.21865,2.72194,2.72194v2.6641
		c0,1.50329-1.21865,2.72194-2.72194,2.72194h-2.6581c-1.50328,0-2.72194-1.21865-2.72194-2.72194v-2.6641
		C66.34343,39.66434,67.56209,38.44569,69.06538,38.44569z"/>
	<path id="Rounded_Rectangle_1-23_1_" class="st3" d="M25.96518,61.09289h2.66022c1.50328,0,2.72194,1.21865,2.72194,2.72194
		v2.66478c0,1.50329-1.21865,2.72194-2.72194,2.72194h-2.66022c-1.50328,0-2.72194-1.21865-2.72194-2.72194v-2.66478
		C23.24324,62.31154,24.46189,61.09289,25.96518,61.09289z"/>
	<path id="Rounded_Rectangle_1-24_1_" class="st2" d="M68.52098,62.77097h2.65811c1.50328,0,2.72193,1.21865,2.72193,2.72194v2.6641
		c0,1.50329-1.21865,2.72194-2.72193,2.72194h-2.65811c-1.50328,0-2.72194-1.21865-2.72194-2.72194v-2.6641
		C65.79904,63.98962,67.0177,62.77097,68.52098,62.77097z"/>
	<path id="Rounded_Rectangle_1-25_1_" class="st3" d="M25.05714,40.33199h2.66029c1.50328,0,2.72194,1.21865,2.72194,2.72194v2.6641
		c0,1.50329-1.21866,2.72194-2.72194,2.72194h-2.66029c-1.50328,0-2.72194-1.21865-2.72194-2.72194v-2.6641
		C22.3352,41.55064,23.55386,40.33199,25.05714,40.33199z"/>
	<path id="Rounded_Rectangle_1-26_1_" class="st1" d="M31.93003,36.7932h2.66029c1.50329,0,2.72194,1.21865,2.72194,2.72194v2.66437
		c0,1.50329-1.21865,2.72194-2.72194,2.72194h-2.66029c-1.50328,0-2.72194-1.21865-2.72194-2.72194v-2.66437
		C29.2081,38.01185,30.42675,36.7932,31.93003,36.7932z"/>
	<path id="Rounded_Rectangle_1-27_1_" class="st2" d="M25.9907,31.24943h2.65811c1.50328,0,2.72194,1.21865,2.72194,2.72194v2.66423
		c0,1.50328-1.21866,2.72194-2.72194,2.72194H25.9907c-1.50328,0-2.72194-1.21866-2.72194-2.72194v-2.66423
		C23.26876,32.46808,24.48741,31.24943,25.9907,31.24943z"/>
	<path id="Rounded_Rectangle_1-28_1_" class="st1" d="M34.94118,64.45924h2.65811c1.50329,0,2.72194,1.21865,2.72194,2.72194
		v2.66478c0,1.50329-1.21865,2.72194-2.72194,2.72194h-2.65811c-1.50328,0-2.72194-1.21865-2.72194-2.72194v-2.66478
		C32.21924,65.6779,33.43789,64.45924,34.94118,64.45924z"/>
	<path id="Rounded_Rectangle_1-29_1_" class="st4" d="M23.80035,35.30042h2.65818c1.50328,0,2.72194,1.21865,2.72194,2.72193
		v2.66485c0,1.50329-1.21865,2.72194-2.72194,2.72194h-2.65818c-1.50328,0-2.72194-1.21865-2.72194-2.72194v-2.66485
		C21.07842,36.51907,22.29707,35.30042,23.80035,35.30042z"/>
	<path id="Rounded_Rectangle_1-30_1_" class="st2" d="M27.64298,47.39202h2.65811c1.50328,0,2.72194,1.21865,2.72194,2.72194v2.6641
		c0,1.50329-1.21866,2.72194-2.72194,2.72194h-2.65811c-1.50328,0-2.72194-1.21865-2.72194-2.72194v-2.6641
		C24.92104,48.61068,26.1397,47.39202,27.64298,47.39202z"/>
	<path id="Rounded_Rectangle_1-31_1_" class="st4" d="M28.55313,54.94063h2.65811c1.50328,0,2.72194,1.21865,2.72194,2.72194
		v2.66682c0,1.50329-1.21865,2.72194-2.72194,2.72194h-2.65811c-1.50328,0-2.72194-1.21865-2.72194-2.72194v-2.66682
		C25.83119,56.15928,27.04985,54.94063,28.55313,54.94063z"/>
	<path id="Rounded_Rectangle_1-32_1_" class="st2" d="M28.27032,65.84539h2.66022c1.50328,0,2.72194,1.21865,2.72194,2.72194
		v2.66478c0,1.50329-1.21865,2.72194-2.72194,2.72194h-2.66022c-1.50328,0-2.72194-1.21865-2.72194-2.72194v-2.66478
		C25.54838,67.06405,26.76704,65.84539,28.27032,65.84539z"/>
	<path id="Rounded_Rectangle_1-33_1_" class="st1" d="M25.29742,20.76146h2.65818c1.50328,0,2.72194,1.21866,2.72194,2.72194
		v2.66451c0,1.50328-1.21865,2.72194-2.72194,2.72194h-2.65818c-1.50328,0-2.72194-1.21866-2.72194-2.72194V23.4834
		C22.57548,21.98011,23.79413,20.76146,25.29742,20.76146z"/>
	<path id="Rounded_Rectangle_1-34_1_" class="st2" d="M62.93884,44.38087h2.66029c1.50329,0,2.72195,1.21865,2.72195,2.72194v2.6641
		c0,1.50328-1.21866,2.72194-2.72194,2.72194h-2.6603c-1.50328,0-2.72194-1.21865-2.72194-2.72194v-2.6641
		C60.2169,45.59953,61.43555,44.38087,62.93884,44.38087z"/>
	<path id="Rounded_Rectangle_1-35_1_" class="st2" d="M71.0366,27.57263h2.66029c1.50328,0,2.72194,1.21866,2.72194,2.72194v2.66457
		c0,1.50328-1.21865,2.72194-2.72193,2.72194h-2.66029c-1.50329,0-2.72194-1.21865-2.72194-2.72194v-2.66457
		C68.31467,28.79128,69.53331,27.57263,71.0366,27.57263z"/>
	<path id="Rounded_Rectangle_1-36_1_" class="st3" d="M63.47689,63.05133h2.6581c1.50329,0,2.72194,1.21865,2.72194,2.72194v2.66478
		c0,1.50329-1.21865,2.72194-2.72194,2.72194h-2.6581c-1.50328,0-2.72194-1.21865-2.72194-2.72194v-2.66478
		C60.75495,64.26998,61.97361,63.05133,63.47689,63.05133z"/>
	<path id="Rounded_Rectangle_1-37_1_" class="st3" d="M67.80859,57.03992h2.6581c1.50329,0,2.72194,1.21865,2.72194,2.72194v2.6641
		c0,1.50329-1.21866,2.72194-2.72194,2.72194h-2.6581c-1.50329,0-2.72194-1.21865-2.72194-2.72194v-2.6641
		C65.08665,58.25857,66.3053,57.03992,67.80859,57.03992z"/>
	<path id="Rounded_Rectangle_1-38_1_" class="st3" d="M70.00104,23.18351h2.6581c1.50329,0,2.72194,1.21866,2.72194,2.72194v2.66457
		c0,1.50329-1.21865,2.72194-2.72194,2.72194h-2.6581c-1.50329,0-2.72194-1.21866-2.72194-2.72194v-2.66457
		C67.2791,24.40216,68.49776,23.18351,70.00104,23.18351z"/>
	<path id="Rounded_Rectangle_1-39_1_" class="st1" d="M60.9591,55.99131h2.65811c1.50329,0,2.72194,1.21865,2.72194,2.72194v2.66478
		c0,1.50329-1.21865,2.72194-2.72194,2.72194H60.9591c-1.50328,0-2.72194-1.21865-2.72194-2.72194v-2.66478
		C58.23716,57.20996,59.45581,55.99131,60.9591,55.99131z"/>
	<path id="Rounded_Rectangle_1-40_1_" class="st3" d="M68.92499,48.93127h2.66029c1.50329,0,2.72195,1.21865,2.72195,2.72194
		v2.66478c0,1.5033-1.21866,2.72194-2.72194,2.72194H68.925c-1.50329,0-2.72194-1.21865-2.72194-2.72194v-2.66478
		C66.20305,50.14993,67.4217,48.93127,68.92499,48.93127z"/>
	<path id="Rounded_Rectangle_1-41_1_" class="st1" d="M64.83147,29.27385h2.6581c1.50328,0,2.72194,1.21866,2.72194,2.72194v2.66437
		c0,1.50329-1.21865,2.72194-2.72194,2.72194h-2.6581c-1.50328,0-2.72194-1.21866-2.72194-2.72194v-2.66437
		C62.10953,30.4925,63.32819,29.27385,64.83147,29.27385z"/>
	<path id="Rounded_Rectangle_1-42_1_" class="st3" d="M31.27506,42.49865h2.65811c1.50328,0,2.72194,1.21865,2.72194,2.72194
		v2.66478c0,1.50329-1.21865,2.72194-2.72194,2.72194h-2.65811c-1.50328,0-2.72194-1.21865-2.72194-2.72194V45.2206
		C28.55313,43.7173,29.77178,42.49865,31.27506,42.49865z"/>
	<path id="Rounded_Rectangle_1-43_1_" class="st3" d="M24.49785,52.98423h2.66029c1.50328,0,2.72194,1.21865,2.72194,2.72194
		v2.66478c0,1.50329-1.21866,2.72194-2.72194,2.72194h-2.66029c-1.50328,0-2.72194-1.21865-2.72194-2.72194v-2.66478
		C21.77591,54.20288,22.99457,52.98423,24.49785,52.98423z"/>
	<path id="Rounded_Rectangle_1-44_1_" class="st4" d="M60.61886,70.41962h2.65811c1.50328,0,2.72194,1.21865,2.72194,2.72194
		v2.66478c0,1.50329-1.21865,2.72194-2.72194,2.72194h-2.65811c-1.50328,0-2.72194-1.21865-2.72194-2.72194v-2.66478
		C57.89692,71.63828,59.11557,70.41962,60.61886,70.41962z"/>
	<path id="Rounded_Rectangle_1-45_1_" class="st3" d="M60.40403,75.19389h2.65817c1.50328,0,2.72194,1.21865,2.72194,2.72194
		v2.66478c0,1.50329-1.21866,2.72194-2.72194,2.72194h-2.65817c-1.50328,0-2.72194-1.21865-2.72194-2.72194v-2.66478
		C57.68209,76.41254,58.90075,75.19389,60.40403,75.19389z"/>
	<path id="Rounded_Rectangle_1-46_1_" class="st4" d="M37.57377,74.1861h2.65817c1.50329,0,2.72194,1.21865,2.72194,2.72194v2.66411
		c0,1.50329-1.21865,2.72193-2.72194,2.72193h-2.65817c-1.50329,0-2.72194-1.21865-2.72194-2.72193v-2.66411
		C34.85183,75.40475,36.07048,74.1861,37.57377,74.1861z"/>
	<path id="Rounded_Rectangle_1-47_1_" class="st3" d="M42.58173,71.15114h2.65818c1.50328,0,2.72194,1.21865,2.72194,2.72195
		v2.66478c0,1.50329-1.21865,2.72194-2.72194,2.72194h-2.65818c-1.50328,0-2.72194-1.21865-2.72194-2.72194v-2.66478
		C39.85979,72.36979,41.07844,71.15114,42.58173,71.15114z"/>
	<path class="st5" d="M49,115c-19.62854,0-37.05347,1.25696-48,3.19989v26.47595C1,149.82544,5.17456,154,10.3241,154H87.6759
		C92.82544,154,97,149.82544,97,144.67584v-26.47595C86.05347,116.25696,68.62854,115,49,115z"/>
	<g>
		<path d="M21.88477,98.14502h3.15039c0.50684,0,0.91992,0.07373,1.24023,0.22021c0.31934,0.14648,0.56641,0.33008,0.73926,0.5498
			c0.17383,0.22021,0.29199,0.45996,0.35547,0.72021c0.06348,0.25977,0.09473,0.5,0.09473,0.71973
			c0,0.22021-0.03125,0.4585-0.09473,0.71533c-0.06348,0.25635-0.18164,0.49463-0.35547,0.71484
			c-0.17285,0.22021-0.41992,0.40186-0.73926,0.54492c-0.32031,0.14355-0.7334,0.21484-1.24023,0.21484h-1.90039v2.74023h-1.25
			V98.14502z M23.13477,101.52539h1.83008c0.14062,0,0.2832-0.02002,0.42969-0.06006
			c0.14746-0.04004,0.28223-0.10498,0.40527-0.19531c0.12305-0.08984,0.22363-0.20996,0.2998-0.35986
			c0.07715-0.1499,0.11523-0.33838,0.11523-0.56494c0-0.2334-0.0332-0.42676-0.09961-0.58008
			c-0.06738-0.15332-0.15723-0.2749-0.27051-0.36475c-0.11328-0.09033-0.24316-0.15186-0.38965-0.18506
			c-0.14648-0.03369-0.30371-0.05029-0.46973-0.05029h-1.85059v2.36036H23.13477z"/>
		<path d="M30.76465,105.42529c-0.41309,0-0.78125-0.06836-1.10449-0.20508c-0.32324-0.13672-0.59668-0.3252-0.82031-0.56494
			c-0.22363-0.24023-0.39355-0.52686-0.50977-0.86035c-0.11719-0.33301-0.1748-0.69971-0.1748-1.09961
			c0-0.39355,0.05762-0.75684,0.1748-1.09033c0.11621-0.33301,0.28613-0.61963,0.50977-0.85986
			c0.22363-0.23975,0.49707-0.42822,0.82031-0.56494c0.32324-0.13672,0.69141-0.20508,1.10449-0.20508
			c0.41308,0,0.78223,0.06836,1.10547,0.20508s0.59668,0.3252,0.81934,0.56494c0.22363,0.24023,0.39355,0.52686,0.51074,0.85986
			c0.11621,0.3335,0.1748,0.69678,0.1748,1.09033c0,0.3999-0.05859,0.7666-0.1748,1.09961
			c-0.11719,0.3335-0.28711,0.62012-0.51074,0.86035c-0.22266,0.23975-0.49609,0.42822-0.81934,0.56494
			S31.17774,105.42529,30.76465,105.42529z M30.76465,104.52539c0.25391,0,0.47363-0.05371,0.66016-0.16016
			c0.18653-0.10645,0.33984-0.24658,0.45996-0.41992s0.20801-0.36865,0.26562-0.58496
			c0.05566-0.2168,0.08496-0.43848,0.08496-0.66504c0-0.22021-0.0293-0.43994-0.08496-0.66016
			c-0.05762-0.22021-0.14551-0.41504-0.26562-0.58496s-0.27344-0.30811-0.45996-0.41504
			c-0.18652-0.10645-0.40625-0.16016-0.66016-0.16016c-0.25293,0-0.47363,0.05371-0.66016,0.16016
			c-0.18652,0.10693-0.33984,0.24512-0.45996,0.41504c-0.11914,0.16992-0.20801,0.36475-0.26465,0.58496
			s-0.08496,0.43994-0.08496,0.66016c0,0.22656,0.02832,0.44824,0.08496,0.66504c0.05664,0.21631,0.14551,0.41162,0.26465,0.58496
			c0.12012,0.17334,0.27344,0.31348,0.45996,0.41992C30.29101,104.47168,30.51172,104.52539,30.76465,104.52539z"/>
		<path d="M33.85449,100.11523h1.20996l1.00977,3.85986h0.02051l0.96973-3.85986h1.15039l0.92969,3.85986h0.02051l1.0498-3.85986
			h1.16016l-1.62012,5.16992h-1.16992l-0.95996-3.83984H37.6045l-0.9502,3.83984h-1.19922L33.85449,100.11523z"/>
		<path d="M42.99512,102.99512c0,0.2002,0.02832,0.39355,0.08496,0.58008s0.1416,0.3501,0.25488,0.48975
			c0.11328,0.14014,0.25684,0.25195,0.42969,0.33545c0.17383,0.08301,0.37988,0.125,0.62012,0.125
			c0.33301,0,0.60156-0.07178,0.80469-0.21533c0.2041-0.14307,0.35547-0.3584,0.45508-0.64502h1.08008
			c-0.05957,0.28027-0.16309,0.53027-0.30957,0.75c-0.14648,0.22021-0.32324,0.40527-0.53027,0.55518
			s-0.43848,0.26318-0.69531,0.33984c-0.25586,0.07666-0.52441,0.11523-0.80469,0.11523c-0.40625,0-0.7666-0.06689-1.08008-0.2002
			s-0.57812-0.31982-0.79492-0.56006c-0.2168-0.23975-0.37988-0.52637-0.49023-0.85986
			c-0.10938-0.3335-0.16504-0.7002-0.16504-1.1001c0-0.3667,0.05859-0.71484,0.17578-1.04492
			c0.11621-0.33008,0.2832-0.62012,0.5-0.87012c0.21582-0.25,0.47754-0.44824,0.78418-0.59473s0.65332-0.22021,1.04004-0.22021
			c0.40723,0,0.77148,0.08496,1.0957,0.25488c0.32324,0.17041,0.59082,0.39502,0.80469,0.67529
			c0.21289,0.27979,0.36816,0.60156,0.46484,0.96484s0.12207,0.73828,0.0752,1.125
			C46.79493,102.99512,42.99512,102.99512,42.99512,102.99512z M45.65527,102.24512
			c-0.01367-0.18018-0.05176-0.35303-0.11523-0.52002c-0.06348-0.1665-0.15039-0.31152-0.25977-0.43506
			c-0.11035-0.12305-0.24414-0.22314-0.40039-0.2998s-0.33203-0.11523-0.52539-0.11523c-0.19922,0-0.38086,0.03516-0.54492,0.10498
			c-0.16309,0.07031-0.30273,0.16699-0.41992,0.29004c-0.11621,0.12354-0.20996,0.26855-0.2793,0.43506
			c-0.07031,0.16699-0.10938,0.34668-0.11523,0.54004h2.66016V102.24512z"/>
		<path d="M47.66406,100.11523h1.07031v1h0.02051c0.0332-0.14014,0.09766-0.27686,0.19434-0.41016s0.21387-0.25488,0.35059-0.36475
			c0.13574-0.11035,0.28809-0.19824,0.45508-0.26514c0.16602-0.06641,0.33594-0.1001,0.50977-0.1001
			c0.13281,0,0.22461,0.00342,0.27441,0.01025c0.05078,0.00635,0.10156,0.01318,0.15527,0.02002v1.09961
			c-0.08008-0.01318-0.16113-0.0249-0.24512-0.03467c-0.08301-0.01025-0.16504-0.01514-0.24512-0.01514
			c-0.19336,0-0.375,0.03857-0.54492,0.11475c-0.16992,0.07715-0.31836,0.19043-0.44434,0.34033
			c-0.12695,0.1499-0.22754,0.33496-0.30078,0.55469c-0.07324,0.22021-0.10938,0.47363-0.10938,0.76025v2.45996h-1.14062
			C47.66405,105.28513,47.66405,100.11523,47.66406,100.11523z"/>
		<path d="M51.89453,102.99512c0,0.2002,0.02832,0.39355,0.08496,0.58008s0.1416,0.3501,0.25488,0.48975
			c0.11328,0.14014,0.25684,0.25195,0.42969,0.33545c0.17383,0.08301,0.37988,0.125,0.62012,0.125
			c0.33301,0,0.60156-0.07178,0.80469-0.21533c0.2041-0.14307,0.35547-0.3584,0.45508-0.64502h1.08008
			c-0.05957,0.28027-0.16309,0.53027-0.30957,0.75c-0.14648,0.22021-0.32324,0.40527-0.53027,0.55518
			s-0.43848,0.26318-0.69531,0.33984c-0.25586,0.07666-0.52441,0.11523-0.80469,0.11523c-0.40625,0-0.7666-0.06689-1.08008-0.2002
			s-0.57812-0.31982-0.79492-0.56006c-0.2168-0.23975-0.37988-0.52637-0.49023-0.85986
			c-0.10938-0.3335-0.16504-0.7002-0.16504-1.1001c0-0.3667,0.05859-0.71484,0.17578-1.04492
			c0.11621-0.33008,0.2832-0.62012,0.5-0.87012c0.21582-0.25,0.47754-0.44824,0.78418-0.59473s0.65332-0.22021,1.04004-0.22021
			c0.40723,0,0.77148,0.08496,1.0957,0.25488c0.32324,0.17041,0.59082,0.39502,0.80469,0.67529
			c0.21289,0.27979,0.36816,0.60156,0.46484,0.96484s0.12207,0.73828,0.0752,1.125
			C55.69435,102.99512,51.89453,102.99512,51.89453,102.99512z M54.55469,102.24512
			c-0.01367-0.18018-0.05176-0.35303-0.11523-0.52002c-0.06348-0.1665-0.15039-0.31152-0.25977-0.43506
			c-0.11035-0.12305-0.24414-0.22314-0.40039-0.2998s-0.33203-0.11523-0.52539-0.11523c-0.19922,0-0.38086,0.03516-0.54492,0.10498
			c-0.16309,0.07031-0.30273,0.16699-0.41992,0.29004c-0.11621,0.12354-0.20996,0.26855-0.2793,0.43506
			c-0.07031,0.16699-0.10938,0.34668-0.11523,0.54004h2.66016V102.24512z"/>
		<path d="M61.4336,105.28516h-1.08008v-0.7002h-0.01953c-0.15332,0.30029-0.37695,0.51514-0.66992,0.64502
			c-0.29395,0.13037-0.60352,0.19531-0.93066,0.19531c-0.40625,0-0.76172-0.07178-1.06445-0.21533
			c-0.30371-0.14307-0.55469-0.33789-0.75488-0.58496c-0.2002-0.24658-0.35059-0.53809-0.4502-0.875
			c-0.09961-0.33643-0.15039-0.69824-0.15039-1.08496c0-0.46631,0.06348-0.87012,0.19043-1.20996s0.29492-0.62012,0.50488-0.83984
			c0.20996-0.22021,0.4502-0.38184,0.71973-0.48486c0.27051-0.10352,0.54492-0.15527,0.8252-0.15527
			c0.16016,0,0.32324,0.01514,0.49023,0.04492c0.16602,0.03027,0.32617,0.07861,0.47949,0.14502
			c0.15332,0.06689,0.2959,0.15186,0.42578,0.25488c0.12988,0.10352,0.23828,0.2251,0.32422,0.36523h0.02051V98.145h1.13965
			C61.4336,98.145,61.4336,105.28516,61.4336,105.28516z M57.4541,102.75537c0,0.21973,0.02832,0.43652,0.08496,0.6499
			s0.14355,0.40332,0.25977,0.56982c0.11621,0.16699,0.26465,0.30029,0.44531,0.3999
			c0.17969,0.1001,0.39258,0.15039,0.63965,0.15039c0.25293,0,0.47168-0.05371,0.65527-0.16016
			c0.18262-0.10645,0.33301-0.24658,0.4502-0.41992c0.11621-0.17334,0.20312-0.36865,0.25977-0.58496
			c0.05664-0.2168,0.08496-0.43848,0.08496-0.66504c0-0.57324-0.12891-1.02002-0.38477-1.34033
			c-0.25684-0.31982-0.60547-0.47998-1.04492-0.47998c-0.26758,0-0.49219,0.05518-0.67578,0.16504
			c-0.18262,0.11035-0.33301,0.25342-0.44922,0.43018c-0.11719,0.17676-0.2002,0.37646-0.25,0.6001
			C57.47852,102.29346,57.4541,102.52197,57.4541,102.75537z"/>
		<path d="M65.48438,98.14502h1.13965v2.64014h0.02051c0.08008-0.12646,0.17676-0.24023,0.29004-0.33984
			c0.11328-0.1001,0.23828-0.18506,0.375-0.25537c0.13672-0.06982,0.28027-0.12305,0.42969-0.15967
			c0.15039-0.03662,0.29883-0.05518,0.44531-0.05518c0.40625,0,0.76172,0.07178,1.06445,0.21484
			c0.30371,0.14355,0.55566,0.34033,0.75586,0.59033c0.19922,0.25,0.34961,0.5415,0.44922,0.875
			c0.10059,0.3335,0.15039,0.68994,0.15039,1.06982c0,0.34668-0.04492,0.68359-0.13477,1.01025s-0.22656,0.61475-0.41016,0.86475
			s-0.41504,0.4502-0.69531,0.6001c-0.2793,0.1499-0.60938,0.2251-0.99023,0.2251c-0.17285,0-0.34766-0.01172-0.52441-0.03516
			s-0.34473-0.06836-0.50488-0.13477c-0.16016-0.06689-0.30566-0.15332-0.43555-0.26025
			c-0.12988-0.10645-0.23828-0.24658-0.32422-0.41992h-0.02052v0.70996h-1.08008
			C65.48437,105.28514,65.48437,98.14502,65.48438,98.14502z M69.46485,102.70508c0-0.2334-0.03027-0.45996-0.09082-0.67969
			c-0.05957-0.22021-0.14941-0.41504-0.26953-0.58545c-0.12012-0.16992-0.26953-0.30615-0.4502-0.40967
			c-0.17969-0.10352-0.38672-0.15527-0.62012-0.15527c-0.47949,0-0.8418,0.16699-1.08496,0.5
			c-0.24316,0.3335-0.36426,0.77686-0.36426,1.33008c0,0.26025,0.03125,0.50195,0.09473,0.7251
			c0.06348,0.22363,0.1582,0.41504,0.28516,0.5752c0.12598,0.15967,0.27832,0.28662,0.45508,0.37988
			c0.17578,0.09326,0.38086,0.14014,0.61426,0.14014c0.26074,0,0.48047-0.05371,0.66016-0.16016s0.32812-0.24512,0.44531-0.41504
			c0.11621-0.16992,0.2002-0.36328,0.25-0.58008C69.43945,103.15381,69.46485,102.93164,69.46485,102.70508z"/>
		<path d="M70.99512,100.11523h1.25l1.34961,3.85986h0.02051l1.30957-3.85986h1.19043l-2.01074,5.44971
			c-0.09277,0.2334-0.18457,0.45654-0.27441,0.67041c-0.08984,0.21289-0.2002,0.40137-0.33008,0.56494
			c-0.12988,0.16309-0.29199,0.29297-0.48535,0.38965s-0.43945,0.14502-0.74023,0.14502c-0.2666,0-0.5293-0.02002-0.79004-0.05957
			v-0.96045c0.09375,0.01367,0.18359,0.02832,0.27051,0.04541c0.08691,0.0166,0.17676,0.0249,0.26953,0.0249
			c0.13379,0,0.24414-0.0166,0.33008-0.05029c0.08691-0.0332,0.1582-0.08154,0.21582-0.14502
			c0.05566-0.06299,0.10449-0.13818,0.14453-0.22461c0.04004-0.08691,0.07617-0.18701,0.11035-0.30029l0.12988-0.3999
			L70.99512,100.11523z"/>
	</g>
	<g>
		<path class="st0" d="M24.89844,139.87061c-0.97266,0.84619-2.31641,1.26904-4.03223,1.26904
			c-1.74023,0-3.08691-0.41992-4.04102-1.26025c-0.9541-0.83984-1.43066-2.13574-1.43066-3.8877v-7.99219h2.8252v7.99219
			c0,0.34814,0.03027,0.68994,0.08984,1.02588c0.06055,0.33594,0.18652,0.6333,0.37891,0.89111
			c0.19141,0.2583,0.45898,0.46777,0.80078,0.62988s0.80078,0.24316,1.37695,0.24316c1.00781,0,1.7041-0.2251,2.08789-0.67529
			c0.38379-0.44971,0.57617-1.15479,0.57617-2.11475v-7.99219h2.82617v7.99219
			C26.35644,137.73145,25.87012,139.02441,24.89844,139.87061z"/>
		<path class="st0" d="M30.94629,131.54541v1.29639H31c0.32422-0.54004,0.74414-0.93311,1.25977-1.1792
			c0.51562-0.24561,1.04395-0.36914,1.58398-0.36914c0.68457,0,1.24512,0.09326,1.68359,0.2793
			c0.4375,0.18604,0.78223,0.44385,1.03418,0.77393s0.42969,0.73193,0.53125,1.20605s0.15332,0.99902,0.15332,1.57471v5.72412
			h-2.55566v-5.25586c0-0.76807-0.12012-1.34131-0.36035-1.71924s-0.66602-0.56689-1.27832-0.56689
			c-0.69629,0-1.2002,0.20703-1.51172,0.62109c-0.3125,0.41406-0.46777,1.09521-0.46777,2.04297v4.87793h-2.55664v-9.30615H30.94629
			z"/>
		<path class="st0" d="M39.26172,130.10547v-2.10596h2.55566v2.10596H39.26172z M41.81738,131.54541v9.30615h-2.55566v-9.30615
			H41.81738z"/>
		<path class="st0" d="M46.62305,127.99951v6.89404l3.22266-3.34814h3.02344l-3.50977,3.41992l3.90625,5.88623h-3.09668
			l-2.55566-4.1582l-0.99023,0.9541v3.2041H44.0674v-12.85205H46.62305z"/>
		<path class="st0" d="M56.5957,131.54541v1.72803h0.03613c0.11914-0.28809,0.28125-0.55469,0.48535-0.80078
			s0.43848-0.45605,0.70215-0.62988s0.5459-0.30908,0.8457-0.40527c0.2998-0.0957,0.6123-0.14404,0.93652-0.14404
			c0.16797,0,0.35352,0.03027,0.55762,0.09033v2.37598c-0.12012-0.02393-0.26367-0.04541-0.43164-0.06299
			c-0.16797-0.01807-0.33008-0.02734-0.48633-0.02734c-0.46777,0-0.86426,0.07812-1.1875,0.23389
			c-0.32422,0.15625-0.58496,0.36914-0.7832,0.63916s-0.33887,0.58496-0.42285,0.94531
			c-0.08398,0.35986-0.12598,0.75-0.12598,1.16992v4.19385h-2.55664v-9.30615H56.5957z"/>
		<path class="st0" d="M61.05957,134.40771c0.03613-0.6001,0.18555-1.09814,0.4502-1.49414
			c0.26367-0.396,0.59961-0.71387,1.00781-0.9541c0.40723-0.23975,0.86621-0.41064,1.37695-0.5127
			c0.50977-0.10205,1.02246-0.15332,1.53906-0.15332c0.46777,0,0.94141,0.0332,1.42188,0.09912
			c0.47949,0.06592,0.91797,0.19531,1.31348,0.38721c0.39648,0.19189,0.7207,0.45898,0.97266,0.80078
			s0.37793,0.79492,0.37793,1.35889v4.84229c0,0.41992,0.02344,0.82178,0.07227,1.20605
			c0.04688,0.38379,0.13184,0.67188,0.25195,0.86377h-2.5928c-0.04785-0.14404-0.08691-0.29102-0.11621-0.44092
			c-0.03027-0.1499-0.05176-0.30322-0.06348-0.45898c-0.4082,0.41992-0.8877,0.71387-1.44043,0.88184
			c-0.55176,0.16797-1.11523,0.25195-1.69141,0.25195c-0.44434,0-0.8584-0.05371-1.24219-0.16211
			c-0.38379-0.10791-0.71973-0.27588-1.00781-0.50391c-0.28809-0.22754-0.5127-0.51562-0.6748-0.86377
			s-0.24316-0.76221-0.24316-1.24219c0-0.52783,0.09277-0.96289,0.2793-1.30469c0.18555-0.34229,0.42578-0.61523,0.71973-0.81934
			c0.29395-0.20361,0.62988-0.35693,1.00781-0.45898c0.37793-0.10156,0.75879-0.18262,1.14258-0.24268
			c0.38477-0.06006,0.7627-0.1084,1.13477-0.14404c0.37109-0.03613,0.70117-0.09033,0.98926-0.16211
			c0.28809-0.07227,0.5166-0.17676,0.68457-0.31494s0.24609-0.33887,0.2334-0.60303c0-0.27588-0.04492-0.49512-0.13477-0.65723
			s-0.20996-0.28809-0.35938-0.37793c-0.15039-0.08984-0.32422-0.1499-0.52246-0.18018
			c-0.19824-0.02979-0.41113-0.04492-0.63867-0.04492c-0.50391,0-0.90039,0.10791-1.18848,0.32422
			c-0.28809,0.21582-0.45605,0.57568-0.50391,1.08008H61.05957z M66.96289,136.29736
			c-0.10742,0.09619-0.24219,0.17139-0.4043,0.2251c-0.16211,0.0542-0.33594,0.09912-0.52246,0.13525
			c-0.18555,0.03564-0.38086,0.06592-0.58496,0.08984c-0.2041,0.02441-0.4082,0.0542-0.6123,0.08984
			c-0.19141,0.03613-0.38086,0.08447-0.56641,0.14404c-0.18652,0.06055-0.34863,0.14111-0.48633,0.24316
			s-0.24902,0.23096-0.33301,0.38672c-0.08398,0.15625-0.12598,0.35449-0.12598,0.59424c0,0.22803,0.04199,0.42041,0.12598,0.57617
			s0.19824,0.27881,0.3418,0.36865c0.14453,0.09033,0.3125,0.15332,0.50391,0.18896c0.19238,0.03613,0.39062,0.0542,0.59473,0.0542
			c0.50391,0,0.89355-0.08398,1.16992-0.25195c0.27539-0.16797,0.47949-0.36914,0.6123-0.60303
			c0.13184-0.23389,0.21289-0.4707,0.24219-0.71094c0.03027-0.23975,0.04492-0.43213,0.04492-0.57617V136.29736z"/>
		<path class="st0" d="M70.52734,133.25537v-1.70996h1.53027v-0.71973c0-0.82812,0.25781-1.50586,0.77344-2.03418
			c0.51562-0.52783,1.2959-0.79199,2.33984-0.79199c0.22852,0,0.45605,0.00928,0.68457,0.02686
			c0.22754,0.01807,0.4502,0.0332,0.66602,0.04541v1.90771c-0.2998-0.03613-0.6123-0.05371-0.93652-0.05371
			c-0.34766,0-0.59668,0.08057-0.74707,0.24268c-0.14941,0.16211-0.22461,0.43506-0.22461,0.81934v0.55762h1.76367v1.70996h-1.76367
			v7.59619h-2.55566v-7.59619H70.52734z"/>
		<path class="st0" d="M82.60547,131.54541v1.70996H80.7334v4.6084c0,0.43164,0.07227,0.71973,0.21582,0.86377
			c0.14453,0.14404,0.43262,0.21582,0.86426,0.21582c0.14355,0,0.28223-0.00586,0.41406-0.01758
			c0.13184-0.01221,0.25781-0.03027,0.37793-0.0542v1.97998c-0.21582,0.03613-0.45605,0.06006-0.71973,0.07178
			c-0.26465,0.01221-0.52246,0.01807-0.77441,0.01807c-0.39551,0-0.77148-0.02686-1.125-0.08105
			c-0.35352-0.05371-0.66602-0.15869-0.93555-0.31494c-0.27051-0.15576-0.4834-0.37793-0.63965-0.66602
			c-0.15527-0.2876-0.2334-0.66602-0.2334-1.13379v-5.49023h-1.54785v-1.70996h1.54785v-2.79004h2.55566v2.79004H82.60547z"/>
	</g>
	<path class="st6" d="M81.96063,22.29657c0-3.07806-1.04926-6.74731-6.04797-6.74731l-15.41522,0.00006
		c-3.5423,0-5.85474,2.38782-6.03479,6.23163l-0.00214,0.04541l-0.00006,0.04541c0,0-0.03271,23.81665-0.03271,31.61481
		c0,1.22308-0.07532,2.22284-0.23022,3.0564c-0.26727,1.35193-0.76727,2.3075-1.52429,2.89911l-0.01593,0.01154l-0.02893,0.02118
		l-0.06787,0.04852c-0.78894,0.5365-1.99927,0.82251-3.58307,0.84033c-1.53864-0.01782-2.74896-0.30383-3.55231-0.85016
		l-0.09833-0.07147c-0.75702-0.59161-1.25702-1.54718-1.5285-2.92133c-0.1507-0.81128-0.22601-1.81104-0.22601-3.03412v-5.71582
		l-0.02142,0.02686l-0.00037-20.43262v-5.06836c0-4.16193-2.31744-6.74731-6.04791-6.74731l-15.41528-0.00006
		c-4.99866,0-6.04791,3.66925-6.04791,6.74731l-0.00049,41.10065c0,8.3974,2.70398,15.58356,7.81964,20.78156
		C29.53796,89.94965,38.0932,93,48.59918,93c0.09326,0,0.18329-0.00226,0.27325-0.00476l0.14294-0.00317l0.11218,0.00317
		C49.21753,92.99774,49.30756,93,49.40082,93c10.50598,0,19.06116-3.05035,24.74066-8.82123
		c5.11566-5.19806,7.81964-12.38416,7.81964-20.78156L81.96063,22.29657z M44.09528,61.01788 M49.40082,91
		c-0.13702,0-0.2652-0.00684-0.40082-0.00787C48.86438,90.99316,48.73621,91,48.59918,91
		c-21.42682,0-30.5603-12.73004-30.5603-27.60278c0-11.84778,0.00049-41.10065,0.00049-41.10065
		c0-3.04333,0.96484-4.74731,4.04791-4.74731c0,0,11.56146,0.00006,15.41528,0.00006c3.02716,0,4.04791,2.20459,4.04791,4.74731
		c0,1.14948,0.00018,23.39252,0.00018,31.18994c0,0.00897,0.00018,0.01782,0.00018,0.02679l0.02136-0.02679
		c0,1.2359,0.07129,2.38544,0.26392,3.42181c0.33173,1.67859,1.00226,3.12732,2.25909,4.1095
		c0.02368,0.01788,0.16022,0.11768,0.2052,0.14941c1.10071,0.74854,2.62134,1.17279,4.69952,1.19623
		c2.07825-0.02344,3.59882-0.44769,4.69952-1.19623c0.04498-0.03174,0.09015-0.06335,0.13373-0.09625
		c0.02411-0.01746,0.04779-0.03528,0.07147-0.05316c1.25684-0.98218,1.92743-2.43091,2.25909-4.1095
		c0.19263-1.03638,0.26392-2.18591,0.26392-3.42181c0-7.79749,0.03271-31.61206,0.03271-31.61206
		c0.11053-2.35956,1.17889-4.3252,4.03699-4.3252c3.85388,0,15.41528-0.00006,15.41528-0.00006
		c3.08307,0,4.04797,1.70398,4.04797,4.74731c0,0,0.00049,29.25287,0.00049,41.10065C79.96112,78.26996,70.82758,91,49.40082,91z"/>
</g>
</svg>
